<?xml version="1.0" standalone="no"?>
<!DOCTYPE svg PUBLIC "-//W3C//DTD SVG 20010904//EN"
 "http://www.w3.org/TR/2001/REC-SVG-20010904/DTD/svg10.dtd">
<svg version="1.0" xmlns="http://www.w3.org/2000/svg"
 width="300.000000pt" height="105.000000pt" viewBox="0 0 300.000000 105.000000"
 preserveAspectRatio="xMidYMid meet">

<g transform="translate(0.000000,105.000000) scale(0.100000,-0.100000)"
fill="#000000" stroke="none">
<path d="M0 565 l0 -485 405 0 405 0 0 -30 0 -30 690 0 690 0 0 30 0 30 405 0
405 0 0 485 0 485 -1500 0 -1500 0 0 -485z m2948 8 l-3 -428 -377 -3 -378 -2
0 40 0 40 -690 0 -690 0 0 -40 0 -40 -377 2 -378 3 -3 428 -2 427 1450 0 1450
0 -2 -427z m-1827 -393 c23 -13 26 -58 4 -67 -14 -5 -14 -8 0 -29 17 -26 19
-34 8 -34 -5 0 -16 14 -25 30 -22 38 -38 38 -38 0 0 -16 -4 -30 -10 -30 -11 0
-14 123 -3 133 10 10 42 8 64 -3z m119 0 c0 -5 -14 -10 -31 -10 -26 0 -30 -3
-27 -22 2 -14 13 -25 28 -29 25 -7 25 -7 -3 -8 -23 -1 -28 -5 -25 -23 2 -16
12 -25 33 -29 29 -6 29 -7 -7 -8 l-38 -1 0 70 0 70 35 0 c19 0 35 -4 35 -10z
m91 0 c10 -6 19 -16 19 -22 0 -9 -3 -9 -12 0 -7 7 -22 12 -35 12 -36 0 -28
-29 13 -46 30 -12 35 -19 32 -42 -2 -22 -9 -28 -34 -30 -19 -2 -36 3 -44 12
-15 19 -7 21 19 4 22 -13 51 -5 51 16 0 8 -17 23 -37 33 -43 21 -50 35 -28 57
19 19 29 20 56 6z m119 0 c0 -5 -7 -10 -15 -10 -12 0 -15 -14 -17 -62 l-2 -63
-3 63 c-3 54 -7 62 -23 62 -11 0 -20 5 -20 10 0 6 18 10 40 10 22 0 40 -4 40
-10z m150 0 c0 -5 -14 -10 -31 -10 -26 0 -30 -3 -27 -22 2 -14 13 -25 28 -29
25 -7 25 -7 -3 -8 -23 -1 -28 -5 -25 -23 2 -16 12 -25 33 -29 29 -6 29 -7 -7
-8 l-38 -1 0 70 0 70 35 0 c19 0 35 -4 35 -10z m221 0 c10 -6 19 -16 19 -22 0
-9 -3 -9 -12 0 -7 7 -22 12 -35 12 -35 0 -30 -33 7 -47 16 -6 33 -18 36 -27
14 -37 -49 -63 -76 -31 -15 18 -7 19 19 3 15 -9 23 -9 35 1 20 17 13 28 -30
46 -38 16 -46 47 -16 64 22 13 29 13 53 1z m69 -31 l13 -31 19 37 c11 20 22
35 24 32 3 -3 -2 -20 -12 -39 -10 -18 -21 -49 -25 -68 -7 -34 -7 -35 -8 -5 -1
17 -10 44 -21 60 -20 31 -27 60 -11 51 4 -3 14 -20 21 -37z m-182 -31 c12 -33
20 -63 17 -66 -2 -3 -7 3 -11 12 -8 21 -74 23 -74 1 0 -8 -5 -15 -11 -15 -6 0
-9 6 -6 13 2 6 13 36 23 65 10 28 23 52 29 52 6 0 21 -28 33 -62z"/>
<path d="M1265 775 c-48 -17 -72 -44 -81 -89 -10 -54 18 -93 84 -122 99 -43
107 -48 107 -73 0 -15 -8 -27 -20 -31 -26 -10 -65 5 -65 25 0 12 -12 15 -55
15 -60 0 -63 -5 -40 -51 24 -46 70 -69 138 -69 97 0 147 40 147 117 0 57 -28
86 -115 120 -60 24 -70 32 -73 55 -3 23 2 29 24 34 21 5 31 2 45 -14 13 -17
28 -22 68 -22 55 0 59 5 36 50 -29 56 -126 83 -200 55z"/>
<path d="M470 580 l0 -200 50 0 50 0 0 75 c0 42 4 75 10 75 5 0 28 -34 51 -75
l41 -75 55 0 55 0 -32 58 c-18 31 -39 66 -47 78 -12 19 -11 22 12 32 32 15 65
69 65 107 0 42 -20 76 -59 102 -30 20 -46 23 -142 23 l-109 0 0 -200z m198
108 c17 -17 15 -54 -4 -72 -9 -9 -32 -16 -55 -16 l-39 0 0 50 0 50 43 0 c24 0
48 -5 55 -12z"/>
<path d="M860 580 l0 -200 125 0 125 0 0 40 0 40 -75 0 -75 0 0 45 0 45 65 0
65 0 0 35 0 35 -65 0 -65 0 0 40 0 40 75 0 75 0 0 40 0 40 -125 0 -125 0 0
-200z"/>
<path d="M1542 743 l3 -38 53 -3 52 -3 0 -160 0 -159 50 0 50 0 0 160 0 160
50 0 50 0 0 40 0 40 -156 0 -155 0 3 -37z"/>
<path d="M1930 580 l0 -200 110 0 110 0 0 40 0 40 -65 0 -65 0 0 160 0 160
-45 0 -45 0 0 -200z"/>
<path d="M2259 646 c67 -127 71 -137 71 -200 l0 -66 50 0 50 0 0 72 c0 69 3
76 65 195 36 68 65 126 65 128 0 3 -24 5 -53 5 l-54 0 -37 -82 -38 -83 -39 83
-38 82 -56 0 -56 0 70 -134z"/>
<path d="M1070 145 c0 -23 4 -26 28 -23 38 4 38 42 0 46 -24 3 -28 0 -28 -23z"/>
<path d="M1661 130 c-14 -42 -15 -40 15 -40 22 0 24 3 18 23 -14 47 -21 51
-33 17z"/>
</g>
</svg>
